<?xml version="1.0" encoding="UTF-8"?>
<!DOCTYPE svg PUBLIC "-//W3C//DTD SVG 1.1//EN" "http://www.w3.org/Graphics/SVG/1.1/DTD/svg11.dtd">
<svg xmlns="http://www.w3.org/2000/svg" version="1.1" width="1512px" height="4320px" style="shape-rendering:geometricPrecision; text-rendering:geometricPrecision; image-rendering:optimizeQuality; fill-rule:evenodd; clip-rule:evenodd" xmlns:xlink="http://www.w3.org/1999/xlink">
<g><path style="opacity:1" fill="#d0fcfd" d="M -0.5,-0.5 C 503.5,-0.5 1007.5,-0.5 1511.5,-0.5C 1511.5,188.833 1511.5,378.167 1511.5,567.5C 1007.42,762.639 503.416,957.972 -0.5,1153.5C -0.5,768.833 -0.5,384.167 -0.5,-0.5 Z"/></g>
<g><path style="opacity:1" fill="#b4dfe5" d="M 1511.5,567.5 C 1511.5,756.167 1511.5,944.833 1511.5,1133.5C 1065.68,1306.25 620.012,1479.25 174.5,1652.5C 116.152,1632.33 57.8187,1611.99 -0.5,1591.5C -0.5,1445.5 -0.5,1299.5 -0.5,1153.5C 503.416,957.972 1007.42,762.639 1511.5,567.5 Z"/></g>
<g><path style="opacity:1" fill="#d1fcfd" d="M 1511.5,1133.5 C 1511.5,1463.5 1511.5,1793.5 1511.5,2123.5C 1065.56,1967.08 619.895,1810.08 174.5,1652.5C 620.012,1479.25 1065.68,1306.25 1511.5,1133.5 Z"/></g>
<g><path style="opacity:1" fill="#f9b86e" d="M -0.5,1591.5 C 57.8187,1611.99 116.152,1632.33 174.5,1652.5C 619.895,1810.08 1065.56,1967.08 1511.5,2123.5C 1511.5,2263.83 1511.5,2404.17 1511.5,2544.5C 1403.71,2505.94 1295.71,2467.94 1187.5,2430.5C 791.624,2290.85 395.624,2151.19 -0.5,2011.5C -0.5,1871.5 -0.5,1731.5 -0.5,1591.5 Z"/></g>
<g><path style="opacity:1" fill="#d1fcfd" d="M -0.5,2011.5 C 395.624,2151.19 791.624,2290.85 1187.5,2430.5C 791.567,2584.03 395.567,2737.37 -0.5,2890.5C -0.5,2597.5 -0.5,2304.5 -0.5,2011.5 Z"/></g>
<g><path style="opacity:1" fill="#b4dfe4" d="M 1187.5,2430.5 C 1295.71,2467.94 1403.71,2505.94 1511.5,2544.5C 1511.5,2653.5 1511.5,2762.5 1511.5,2871.5C 1141.71,3014.23 772.046,3157.23 402.5,3300.5C 268.105,3253.81 133.772,3206.81 -0.5,3159.5C -0.5,3069.83 -0.5,2980.17 -0.5,2890.5C 395.567,2737.37 791.567,2584.03 1187.5,2430.5 Z"/></g>
<g><path style="opacity:1" fill="#d1fcfd" d="M 1511.5,2871.5 C 1511.5,3144.83 1511.5,3418.17 1511.5,3691.5C 1141.41,3562.14 771.743,3431.8 402.5,3300.5C 772.046,3157.23 1141.71,3014.23 1511.5,2871.5 Z"/></g>
<g><path style="opacity:1" fill="#f9b86e" d="M -0.5,3159.5 C 133.772,3206.81 268.105,3253.81 402.5,3300.5C 771.743,3431.8 1141.41,3562.14 1511.5,3691.5C 1511.5,3831.83 1511.5,3972.17 1511.5,4112.5C 1410.58,4076.64 1309.58,4040.97 1208.5,4005.5C 805.527,3863.51 402.527,3721.51 -0.5,3579.5C -0.5,3439.5 -0.5,3299.5 -0.5,3159.5 Z"/></g>
<g><path style="opacity:1" fill="#d1fcfd" d="M -0.5,3579.5 C 402.527,3721.51 805.527,3863.51 1208.5,4005.5C 939.167,4110.17 669.833,4214.83 400.5,4319.5C 266.833,4319.5 133.167,4319.5 -0.5,4319.5C -0.5,4072.83 -0.5,3826.17 -0.5,3579.5 Z"/></g>
<g><path style="opacity:1" fill="#b4dfe4" d="M 1208.5,4005.5 C 1309.58,4040.97 1410.58,4076.64 1511.5,4112.5C 1511.5,4181.5 1511.5,4250.5 1511.5,4319.5C 1141.17,4319.5 770.833,4319.5 400.5,4319.5C 669.833,4214.83 939.167,4110.17 1208.5,4005.5 Z"/></g>
</svg>
